<?xml version="1.0" encoding="UTF-8"?>
<svg version="1.1" xmlns="http://www.w3.org/2000/svg" width="512" height="512">
<path d="M0 0 C1.85796948 -0.00461485 3.71593529 -0.01097167 5.57389355 -0.01890898 C10.65442257 -0.03554515 15.7346495 -0.02738193 20.81517935 -0.0149641 C26.30402221 -0.00589252 31.79281408 -0.0198938 37.28164673 -0.03088379 C48.02439246 -0.04865107 58.76702627 -0.04483697 69.50977635 -0.03323323 C78.2422345 -0.02419215 86.97466132 -0.02297783 95.7071228 -0.02732849 C96.95094481 -0.02794142 98.19476681 -0.02855436 99.47628039 -0.02918586 C102.00324322 -0.03046479 104.53020603 -0.03176164 107.05716884 -0.03307623 C130.06619019 -0.04415192 153.07516202 -0.03267463 176.08417122 -0.01170584 C197.07185317 0.00727545 218.05943803 0.00557689 239.04711914 -0.0135498 C262.6474587 -0.0349858 286.24775694 -0.04337819 309.84810734 -0.03110075 C312.36566733 -0.02982658 314.88322734 -0.0285691 317.40078735 -0.02732849 C319.25871919 -0.02640284 319.25871919 -0.02640284 321.154185 -0.02545848 C329.87407403 -0.02200777 338.59392857 -0.02782795 347.31381226 -0.0372467 C357.9434197 -0.04847608 368.57290902 -0.04540679 379.20250297 -0.02412373 C384.62375243 -0.01362607 390.04480509 -0.00946972 395.46605301 -0.02272034 C400.43287476 -0.03467646 405.39931805 -0.02802853 410.36610568 -0.00681013 C412.15867701 -0.00235772 413.9512806 -0.00457958 415.74383104 -0.01431328 C429.16371376 -0.08157025 440.69958268 1.02141105 451.29223633 10.16418457 C460.46112217 19.66562067 462.85913728 29.00228931 462.82138062 41.75372314 C462.82591173 42.87900335 462.83044284 44.00428355 462.83511126 45.16366315 C462.84776121 48.93048038 462.84613447 52.69715314 462.84448242 56.46398926 C462.84938141 59.16635685 462.85721632 61.86871434 462.86483765 64.57107544 C462.88142639 71.14781855 462.88694624 77.72452581 462.8880624 84.3012881 C462.88901393 89.64952571 462.89312946 94.99775153 462.89946365 100.34598541 C462.91707063 115.52206991 462.92630343 130.69812616 462.92480271 145.87422094 C462.92468284 147.10056544 462.92468284 147.10056544 462.92456055 148.35168457 C462.92447879 149.17025032 462.92439702 149.98881607 462.92431279 150.83218685 C462.92350014 164.09367173 462.94263367 177.35504296 462.97083728 190.61649498 C462.9995937 204.24585736 463.01337604 217.87516437 463.01164973 231.50455785 C463.01098676 239.15134943 463.01643822 246.79802188 463.03800583 254.44478607 C463.05625403 260.95620163 463.06053527 267.46744406 463.04698698 273.97887418 C463.04047526 277.29786885 463.04246509 280.6162619 463.05769348 283.9352684 C463.07316664 287.54187697 463.06382274 291.147621 463.0484314 294.75421143 C463.05871852 295.79129706 463.06900565 296.8283827 463.07960451 297.89689517 C462.97972502 308.52817773 459.73316677 317.2051222 452.82348633 325.28137207 C441.57394638 336.31792589 428.28185496 336.9497544 413.46867371 336.89561462 C411.61329508 336.89978993 409.75791901 336.90526853 407.90254766 336.91193444 C402.81528991 336.92638204 397.72819427 336.9221464 392.64092767 336.91476762 C387.14999203 336.91003655 381.6590915 336.92254533 376.16816711 336.93278503 C365.4150035 336.94997991 354.6618983 336.95081155 343.90872451 336.94557213 C335.16761667 336.94153024 326.4265261 336.94297422 317.68541908 336.94832039 C315.81907637 336.94944302 315.81907637 336.94944302 313.91502977 336.95058833 C311.38734234 336.95211982 308.85965493 336.95365817 306.33196751 336.9552033 C289.36076872 336.96503188 272.38957618 336.96919606 255.41837597 336.96157742 C254.42329044 336.96113166 254.42329044 336.96113166 253.40810218 336.96067689 C248.02122993 336.95822806 242.63435776 336.95561642 237.2474856 336.95299276 C216.24015535 336.94289253 195.23290504 336.95124249 174.22558594 336.9744873 C150.61098894 337.00057496 126.9964281 337.01335418 103.38181382 337.00629956 C90.8831152 337.00280689 78.38448221 337.00504249 65.88579369 337.02255058 C55.24514003 337.03727113 44.60459824 337.03790991 33.96394678 337.02047967 C28.53663841 337.01196591 23.10952987 337.00982949 17.6822319 337.02513123 C12.70974587 337.0389769 7.73763088 337.03421645 2.76516632 337.01489199 C0.97048378 337.01113132 -0.82422847 337.01405587 -2.61888454 337.02450364 C-16.04644481 337.09708825 -27.58491842 336.00028772 -38.18432617 326.85168457 C-47.35321201 317.35024847 -49.75122712 308.01357983 -49.71347046 295.262146 C-49.71800157 294.13686579 -49.72253268 293.01158559 -49.7272011 291.85220599 C-49.73985106 288.08538876 -49.73822432 284.318716 -49.73657227 280.55187988 C-49.74147126 277.84951229 -49.74930616 275.1471548 -49.75692749 272.4447937 C-49.77351623 265.86805059 -49.77903608 259.29134333 -49.78015225 252.71458104 C-49.78110377 247.36634343 -49.7852193 242.01811761 -49.7915535 236.66988373 C-49.80916048 221.49379923 -49.81839327 206.31774299 -49.81689255 191.1416482 C-49.81681264 190.3240852 -49.81673272 189.50652221 -49.81665039 188.66418457 C-49.81656863 187.84561882 -49.81648687 187.02705307 -49.81640263 186.18368229 C-49.81558999 172.92219741 -49.83472352 159.66082618 -49.86292712 146.39937416 C-49.89168354 132.77001178 -49.90546589 119.14070477 -49.90373957 105.51131129 C-49.9030766 97.86451971 -49.90852806 90.21784726 -49.93009567 82.57108307 C-49.94834388 76.05966751 -49.95262511 69.54842508 -49.93907683 63.03699496 C-49.93256511 59.71800029 -49.93455494 56.39960724 -49.94978333 53.08060074 C-49.96525648 49.47399217 -49.95591258 45.86824814 -49.94052124 42.26165771 C-49.95080837 41.22457208 -49.96109549 40.18748644 -49.97169435 39.11897397 C-49.85910977 27.13534705 -45.6650377 18.11682264 -37.44604492 9.50793457 C-27.26216363 -0.31481618 -13.19353167 -0.07164203 0 0 Z " fill="#FE4A54" transform="translate(49.446044921875,87.4920654296875)"/>
<path d="M0 0 C40.56182441 -0.09160399 81.12363531 -0.16206333 121.68554254 -0.20426132 C126.4768853 -0.209264 131.26822786 -0.2144413 136.05957031 -0.21972656 C137.01341931 -0.2207758 137.96726832 -0.22182505 138.95002183 -0.22290608 C154.38401194 -0.24029979 169.81794231 -0.27183178 185.25189701 -0.30861118 C201.09472508 -0.34604938 216.93752192 -0.36824194 232.78039241 -0.37635398 C242.55218306 -0.38183578 252.32380482 -0.39913441 262.09554347 -0.43166587 C268.8011532 -0.4528493 275.50667592 -0.45919139 282.21231666 -0.45400551 C286.07812771 -0.45144967 289.94364413 -0.45530026 293.80940247 -0.4768219 C298.00929509 -0.50003183 302.20856575 -0.49191727 306.4085083 -0.48101807 C307.61865766 -0.49266943 308.82880702 -0.5043208 310.07562757 -0.51632524 C321.40440142 -0.43708213 331.07787792 2.18124809 339.73828125 9.65625 C375.31269897 46.52093158 351 158.8470314 351 168 C235.5 168 120 168 1 168 C2.98 166.02 2.98 166.02 5 164 C6.09580696 160.71257913 6.13129956 158.28829468 6.14044189 154.82644653 C6.14615204 153.53376862 6.15186218 152.2410907 6.15774536 150.90924072 C6.15899071 149.47351084 6.1601158 148.03778085 6.16113281 146.60205078 C6.16576128 145.09249754 6.17078598 143.58294548 6.17617798 142.07339478 C6.18930025 137.97006223 6.19574647 133.86674604 6.20018864 129.76339579 C6.20311933 127.20027222 6.20722411 124.63715314 6.21169281 122.07403183 C6.2253666 114.05591545 6.23503413 106.03780929 6.2388947 98.01968205 C6.24337686 88.76129488 6.26093254 79.50305525 6.2898953 70.24471295 C6.31150224 63.08964107 6.32159843 55.93461073 6.32293582 48.77950656 C6.32398446 44.50532224 6.32990479 40.23127662 6.34775543 35.95712662 C6.36421935 31.93683741 6.36639989 27.91679144 6.35761642 23.89648056 C6.35684517 22.42146911 6.36120039 20.94644467 6.37107468 19.47146606 C6.38376998 17.45685727 6.37613446 15.44215101 6.36749268 13.42752075 C6.36895924 12.30037722 6.3704258 11.17323368 6.3719368 10.01193428 C5.94932031 6.58959721 5.05624583 4.74648425 3 2 C2.01 1.34 1.02 0.68 0 0 Z " fill="#F4F4F4" transform="translate(161,88)"/>
<path d="M0 0 C1.89252754 -0.00810448 1.89252754 -0.00810448 3.82328796 -0.01637268 C7.24447145 -0.03018752 10.66514425 -0.01926224 14.0862987 -0.00266147 C17.68205218 0.01130596 21.27777952 0.00471657 24.87355042 0.00120544 C30.90113457 -0.00148509 36.92851824 0.01188701 42.95605469 0.03515625 C49.91703362 0.06184353 56.87767945 0.06348208 63.83869213 0.05176789 C70.55672543 0.04098439 77.27463866 0.04717617 83.99266243 0.06132317 C86.84384067 0.06706954 89.69493066 0.06701118 92.54611015 0.06225777 C96.52175361 0.05659289 100.4970642 0.07581771 104.47265625 0.09765625 C105.65142334 0.0931546 106.83019043 0.08865295 108.04467773 0.08401489 C109.12804916 0.09391953 110.21142059 0.10382416 111.32762146 0.11402893 C112.26609138 0.11645883 113.20456129 0.11888872 114.17146969 0.12139225 C117.37243419 0.58746837 119.20894083 1.5564442 121.78344727 3.50170898 C124.14845463 6.77522081 124.03692502 9.83795105 124.04414368 13.79551697 C124.05122849 15.08956955 124.05831329 16.38362213 124.06561279 17.71688843 C124.06331902 19.14898717 124.06080933 20.58108557 124.05810547 22.01318359 C124.06245314 23.52288566 124.06763648 25.03258553 124.07359314 26.5422821 C124.08698832 30.64144863 124.08756125 34.74052299 124.08502984 38.83970714 C124.0839605 42.26174111 124.08884254 45.68375641 124.09363526 49.10578638 C124.1047322 57.17877413 124.10516678 65.25171535 124.09912109 73.32470703 C124.0930799 81.6533188 124.10539555 89.98176169 124.12669116 98.31034464 C124.14430316 105.4611983 124.15030917 112.6119982 124.14705342 119.76287276 C124.1452398 124.03367775 124.14788452 128.30436227 124.16176796 132.57514763 C124.17433522 136.59136152 124.17241277 140.607312 124.15935707 144.6235218 C124.15698934 146.09691583 124.15973305 147.57032833 124.16798019 149.04370117 C124.1784316 151.05608236 124.1685533 153.06853846 124.15766907 155.08091736 C124.15783681 156.20676208 124.15800455 157.33260679 124.15817738 158.49256802 C123.73240529 161.91158395 122.83744599 163.75701367 120.78344727 166.50170898 C117.23632843 168.86645487 115.74032785 168.75677983 111.53396606 168.76913452 C109.56970673 168.78192947 109.56970673 168.78192947 107.56576538 168.79498291 C106.1111449 168.79428386 104.65652451 168.79336078 103.2019043 168.79223633 C101.67264476 168.79821954 100.14338826 168.8050246 98.61413574 168.81259155 C94.45706935 168.83028032 90.30008525 168.83494815 86.14298487 168.83622313 C82.67377852 168.83812107 79.2045914 168.84547743 75.73539245 168.85256732 C67.55071724 168.86885993 59.36608604 168.87373549 51.18139648 168.87231445 C42.73631712 168.87111289 34.29149328 168.89221564 25.84647858 168.92380178 C18.59798006 168.94994737 11.34956507 168.96068247 4.10101974 168.95940363 C-0.22908957 168.95889348 -4.55897189 168.96460608 -8.88903427 168.98575974 C-12.96192214 169.00511325 -17.03436582 169.00528666 -21.10726929 168.99072647 C-22.6016314 168.98863363 -24.09602109 168.99336758 -25.59033585 169.00544739 C-27.63120266 169.02087608 -29.67222063 169.00920357 -31.71310425 168.9961853 C-32.85499647 168.99727484 -33.99688869 168.99836437 -35.17338371 168.99948692 C-38.88529987 168.39232053 -40.54490749 167.09660236 -43.21655273 164.50170898 C-44.48827499 161.95826448 -44.35100779 160.17243362 -44.36372375 157.32398987 C-44.37087906 156.22646896 -44.37803436 155.12894806 -44.38540649 153.99816895 C-44.3880954 152.78834351 -44.3907843 151.57851807 -44.39355469 150.33203125 C-44.40012589 149.0619371 -44.40669708 147.79184296 -44.41346741 146.48326111 C-44.43452664 142.26155871 -44.44487764 138.0398559 -44.45483398 133.81811523 C-44.4588821 132.36282774 -44.46299904 130.90754044 -44.46718407 129.45225334 C-44.48624687 122.60878364 -44.50047057 115.76532474 -44.50879604 108.92183357 C-44.51854602 101.03821572 -44.54480192 93.15488032 -44.58529693 85.27136189 C-44.61555331 79.17013622 -44.63027425 73.06899101 -44.63357705 66.96769184 C-44.63591849 63.32815744 -44.64475829 59.68892437 -44.67003822 56.0494709 C-44.69785836 51.97811576 -44.69345892 47.90738194 -44.68652344 43.8359375 C-44.6993335 42.64433014 -44.71214355 41.45272278 -44.7253418 40.2250061 C-44.64779674 27.68503144 -40.86303333 18.55836418 -32.21655273 9.50170898 C-23.56408759 1.15606885 -11.464069 -0.09516959 0 0 Z " fill="#41479B" transform="translate(44.216552734375,87.498291015625)"/>
<path d="M0 0 C2.47143555 0.01342773 2.47143555 0.01342773 5 1 C6.39379883 3.50024414 6.39379883 3.50024414 7.45703125 6.78515625 C7.84697266 7.95498047 8.23691406 9.12480469 8.63867188 10.33007812 C9.02603516 11.56177734 9.41339844 12.79347656 9.8125 14.0625 C10.42254883 15.91584961 10.42254883 15.91584961 11.04492188 17.80664062 C12.04879608 20.86550438 13.03274917 23.92939758 14 27 C15.25659424 27.029729 15.25659424 27.029729 16.53857422 27.06005859 C19.64365834 27.13810612 22.74834539 27.22479635 25.85302734 27.31738281 C27.85886971 27.37454036 29.86498918 27.42168596 31.87109375 27.46875 C33.12792969 27.50742188 34.38476562 27.54609375 35.6796875 27.5859375 C37.42354736 27.63306885 37.42354736 27.63306885 39.20263672 27.68115234 C42 28 42 28 44 30 C43.84739319 32.84083445 43.14022883 33.86265654 41.1015625 35.859375 C40.28429687 36.48328125 39.46703125 37.1071875 38.625 37.75 C37.73296875 38.43578125 36.8409375 39.1215625 35.921875 39.828125 C31.30850283 43.25731607 26.67639593 46.65717705 22 50 C23.77977172 56.84942449 25.80769638 63.52449979 28.23046875 70.17578125 C29.06834281 73.2508216 29.20604303 75.82693729 29 79 C28 80 28 80 25.94140625 80.42578125 C21.36876781 79.7638721 18.49118917 77.01155913 14.9375 74.1875 C13.87692383 73.36668945 13.87692383 73.36668945 12.79492188 72.52929688 C11.47354351 71.50569391 10.15593772 70.47718767 8.84350586 69.44213867 C6.91551904 67.9339122 4.9626007 66.46280292 3 65 C-0.03749385 66.42104724 -2.66104795 68.10330305 -5.37109375 70.07421875 C-6.19287109 70.65880859 -7.01464844 71.24339844 -7.86132812 71.84570312 C-9.58176215 73.07570258 -11.29533282 74.31535784 -13.00195312 75.56445312 C-13.82501953 76.14517578 -14.64808594 76.72589844 -15.49609375 77.32421875 C-16.61262329 78.1299231 -16.61262329 78.1299231 -17.75170898 78.9519043 C-20.57887367 80.26985608 -22.06686907 79.88216648 -25 79 C-24.8013725 71.3257558 -22.70893058 64.57700444 -20.15625 57.41796875 C-19.20081123 54.59361427 -18.49161504 51.93293062 -18 49 C-18.58120605 48.72671875 -19.16241211 48.4534375 -19.76123047 48.171875 C-21.96322869 47.0192478 -23.83714943 45.74377203 -25.8203125 44.25 C-26.52027344 43.7240625 -27.22023438 43.198125 -27.94140625 42.65625 C-28.66199219 42.1096875 -29.38257813 41.563125 -30.125 41 C-30.85332031 40.4534375 -31.58164062 39.906875 -32.33203125 39.34375 C-37.71851504 35.28148496 -37.71851504 35.28148496 -40 33 C-39.46428571 29.46428571 -39.46428571 29.46428571 -38 28 C-35.92737924 27.91232888 -33.85179706 27.89304127 -31.77734375 27.90234375 C-30.51728516 27.90556641 -29.25722656 27.90878906 -27.95898438 27.91210938 C-26.61848891 27.92046597 -25.27799412 27.92893093 -23.9375 27.9375 C-22.59310058 27.9425134 -21.2486994 27.94707658 -19.90429688 27.95117188 C-16.60282059 27.96300512 -13.30143197 27.97949029 -10 28 C-9.8131665 27.2994751 -9.62633301 26.5989502 -9.43383789 25.87719727 C-7.89974045 20.17988178 -6.2859469 14.54078576 -4.4375 8.9375 C-4.22931641 8.28845703 -4.02113281 7.63941406 -3.80664062 6.97070312 C-2.84730222 4.07464392 -2.1876734 2.1876734 0 0 Z " fill="#F2F2F3" transform="translate(82,132)"/>
</svg>
